<svg aria-hidden="false" aria-label="Interactive chart" viewBox="0 0 650 400" height="400" width="650" xmlns="http://www.w3.org/2000/svg" style="font-family: Roboto; font-size: 12px;" class="highcharts-root" version="1.1" xmlns:xlink="http://www.w3.org/1999/xlink"><desc aria-hidden="true">Created with Highcharts 10.3.1</desc><defs aria-hidden="true"><clipPath id="highcharts-m05fyrs-728-"><rect fill="none" height="279" width="596" y="0" x="0"></rect></clipPath><clipPath id="highcharts-m05fyrs-736-"><rect fill="none" height="279" width="596" y="0" x="0"></rect></clipPath></defs><rect aria-hidden="true" ry="0" rx="0" height="400" width="650" y="0" x="0" class="highcharts-background" fill="#ffffff"></rect><rect aria-hidden="true" height="279" width="596" y="47" x="44" class="highcharts-plot-background" fill="none"></rect><g aria-hidden="true" data-z-index="0" class="highcharts-pane-group"></g><g aria-hidden="true" data-z-index="1" class="highcharts-grid highcharts-xaxis-grid"><path opacity="1" d="M 128.5 47 L 128.5 326" class="highcharts-grid-line" data-z-index="1" stroke-dasharray="none" fill="none"></path><path opacity="1" d="M 213.5 47 L 213.5 326" class="highcharts-grid-line" data-z-index="1" stroke-dasharray="none" fill="none"></path><path opacity="1" d="M 298.5 47 L 298.5 326" class="highcharts-grid-line" data-z-index="1" stroke-dasharray="none" fill="none"></path><path opacity="1" d="M 384.5 47 L 384.5 326" class="highcharts-grid-line" data-z-index="1" stroke-dasharray="none" fill="none"></path><path opacity="1" d="M 469.5 47 L 469.5 326" class="highcharts-grid-line" data-z-index="1" stroke-dasharray="none" fill="none"></path><path opacity="1" d="M 554.5 47 L 554.5 326" class="highcharts-grid-line" data-z-index="1" stroke-dasharray="none" fill="none"></path><path opacity="1" d="M 639.5 47 L 639.5 326" class="highcharts-grid-line" data-z-index="1" stroke-dasharray="none" fill="none"></path><path opacity="1" d="M 43.5 47 L 43.5 326" class="highcharts-grid-line" data-z-index="1" stroke-dasharray="none" fill="none"></path></g><g aria-hidden="true" data-z-index="1" class="highcharts-grid highcharts-yaxis-grid"><path opacity="1" d="M 44 326.5 L 640 326.5" class="highcharts-grid-line" data-z-index="1" stroke-dasharray="none" stroke-width="1" stroke="#e6e6e6" fill="none"></path><path opacity="1" d="M 44 270.5 L 640 270.5" class="highcharts-grid-line" data-z-index="1" stroke-dasharray="none" stroke-width="1" stroke="#e6e6e6" fill="none"></path><path opacity="1" d="M 44 214.5 L 640 214.5" class="highcharts-grid-line" data-z-index="1" stroke-dasharray="none" stroke-width="1" stroke="#e6e6e6" fill="none"></path><path opacity="1" d="M 44 159.5 L 640 159.5" class="highcharts-grid-line" data-z-index="1" stroke-dasharray="none" stroke-width="1" stroke="#e6e6e6" fill="none"></path><path opacity="1" d="M 44 103.5 L 640 103.5" class="highcharts-grid-line" data-z-index="1" stroke-dasharray="none" stroke-width="1" stroke="#e6e6e6" fill="none"></path><path opacity="1" d="M 44 46.5 L 640 46.5" class="highcharts-grid-line" data-z-index="1" stroke-dasharray="none" stroke-width="1" stroke="#e6e6e6" fill="none"></path></g><rect aria-hidden="true" height="279" width="596" y="47" x="44" data-z-index="1" class="highcharts-plot-border" fill="none"></rect><g aria-hidden="true" data-z-index="2" class="highcharts-axis highcharts-xaxis"><path d="M 44 326.5 L 640 326.5" data-z-index="7" stroke-width="1" stroke="#ccd6eb" class="highcharts-axis-line" fill="none"></path></g><g aria-hidden="true" data-z-index="2" class="highcharts-axis highcharts-yaxis"><path d="M 44 47 L 44 326" data-z-index="7" class="highcharts-axis-line" fill="none"></path></g><g aria-hidden="false" data-z-index="3" class="highcharts-series-group"><g aria-hidden="true" clip-path="url(#highcharts-m05fyrs-736-)" transform="translate(44,47) scale(1 1)" opacity="1" data-z-index="0.1" class="highcharts-series highcharts-series-0 highcharts-spline-series"><path stroke-linecap="round" stroke-linejoin="round" stroke-width="2" stroke="#262424" data-z-index="1" class="highcharts-graph" d="M 42.571428571429 125.55000000000001 C 42.571428571429 125.55000000000001 93.6571428571456 39.06 127.71428571429 39.06 C 161.77142857143 39.06 178.8 96.53400000000238 212.85714285714 136.71 C 246.914285714284 176.88600000000238 263.942857142856 239.94 298 239.94 C 332.057142857144 239.94 349.085714285716 161.82000000000002 383.14285714286 147.87 C 417.200000000004 133.92 434.228571428576 147.87 468.28571428572 133.92 C 502.34285714286 119.96999999999997 553.42857142857 39.06 553.42857142857 39.06" fill="none"></path></g><g style="outline: none;" aria-label="Item 1, line 1 of 2 with 7 data points." tabindex="-1" role="region" aria-hidden="false" clip-path="none" transform="translate(44,47) scale(1 1)" opacity="1" data-z-index="0.1" class="highcharts-markers highcharts-series-0 highcharts-spline-series"><path style="outline: none;" aria-label="Button, 55. Item 1." role="img" tabindex="-1" class="highcharts-point" opacity="1" d="M 42 130 A 4 4 0 1 1 42.00399999933334 129.99999800000018 Z" fill="#262424"></path><path style="outline: none;" aria-label="Accordion, 86. Item 1." role="img" tabindex="-1" class="highcharts-point" opacity="1" d="M 127 43 A 4 4 0 1 1 127.00399999933333 42.99999800000017 Z" fill="#262424"></path><path style="outline: none;" aria-label="Alert, 51. Item 1." role="img" tabindex="-1" class="highcharts-point" opacity="1" d="M 212 141 A 4 4 0 1 1 212.00399999933333 140.99999800000018 Z" fill="#262424"></path><path style="outline: none;" aria-label="Tooltip, 14. Item 1." role="img" tabindex="-1" class="highcharts-point" opacity="1" d="M 298 244 A 4 4 0 1 1 298.00399999933336 243.99999800000018 Z" fill="#262424"></path><path style="outline: none;" aria-label="Form, 47. Item 1." role="img" tabindex="-1" class="highcharts-point" opacity="1" d="M 383 152 A 4 4 0 1 1 383.00399999933336 151.99999800000018 Z" fill="#262424"></path><path style="outline: none;" aria-label="Dialog, 52. Item 1." role="img" tabindex="-1" class="highcharts-point" opacity="1" d="M 468 138 A 4 4 0 1 1 468.00399999933336 137.99999800000018 Z" fill="#262424"></path><path style="outline: none;" aria-label="Carousal, 86. Item 1." role="img" tabindex="-1" class="highcharts-point" opacity="1" d="M 553 43 A 4 4 0 1 1 553.0039999993334 42.99999800000017 Z" fill="#262424"></path></g><g aria-hidden="true" clip-path="url(#highcharts-m05fyrs-736-)" transform="translate(44,47) scale(1 1)" opacity="1" data-z-index="0.1" class="highcharts-series highcharts-series-1 highcharts-spline-series"><path stroke-linecap="round" stroke-linejoin="round" stroke-width="2" stroke="#282c22" data-z-index="1" class="highcharts-graph" d="M 42.571428571429 164.61 C 42.571428571429 164.61 93.6571428571456 150.66 127.71428571429 150.66 C 161.77142857143 150.66 178.8 181.35 212.85714285714 181.35 C 246.914285714284 181.35 263.942857142856 30.689999999999998 298 30.689999999999998 C 332.057142857144 30.689999999999998 349.085714285716 89.28 383.14285714286 89.28 C 417.200000000004 89.28 434.228571428576 19.529999999999973 468.28571428572 19.529999999999973 C 502.34285714286 19.529999999999973 553.42857142857 111.6 553.42857142857 111.6" fill="none"></path></g><g style="outline: none;" aria-label="Item 2, line 2 of 2 with 7 data points." tabindex="-1" role="region" aria-hidden="false" clip-path="none" transform="translate(44,47) scale(1 1)" opacity="1" data-z-index="0.1" class="highcharts-markers highcharts-series-1 highcharts-spline-series"><path style="outline: none;" aria-label="Button, 41. Item 2." role="img" tabindex="-1" class="highcharts-point" opacity="1" d="M 42 161 L 46 165 L 42 169 L 38 165 Z" fill="#282c22"></path><path style="outline: none;" aria-label="Accordion, 46. Item 2." role="img" tabindex="-1" class="highcharts-point" opacity="1" d="M 127 147 L 131 151 L 127 155 L 123 151 Z" fill="#282c22"></path><path style="outline: none;" aria-label="Alert, 35. Item 2." role="img" tabindex="-1" class="highcharts-point" opacity="1" d="M 212 177 L 216 181 L 212 185 L 208 181 Z" fill="#282c22"></path><path style="outline: none;" aria-label="Tooltip, 89. Item 2." role="img" tabindex="-1" class="highcharts-point" opacity="1" d="M 298 27 L 302 31 L 298 35 L 294 31 Z" fill="#282c22"></path><path style="outline: none;" aria-label="Form, 68. Item 2." role="img" tabindex="-1" class="highcharts-point" opacity="1" d="M 383 85 L 387 89 L 383 93 L 379 89 Z" fill="#282c22"></path><path style="outline: none;" aria-label="Dialog, 93. Item 2." role="img" tabindex="-1" class="highcharts-point" opacity="1" d="M 468 16 L 472 20 L 468 24 L 464 20 Z" fill="#282c22"></path><path style="outline: none;" aria-label="Carousal, 60. Item 2." role="img" tabindex="-1" class="highcharts-point" opacity="1" d="M 553 108 L 557 112 L 553 116 L 549 112 Z" fill="#282c22"></path></g></g><text aria-hidden="true" y="24" style="color: rgb(51, 51, 51); font-size: 18px; fill: rgb(51, 51, 51);" data-z-index="4" class="highcharts-title" text-anchor="middle" x="325">Chart title</text><text aria-hidden="true" y="46" style="color: rgb(102, 102, 102); fill: rgb(102, 102, 102);" data-z-index="4" class="highcharts-subtitle" text-anchor="middle" x="325"></text><text aria-hidden="true" y="397" style="color: rgb(102, 102, 102); fill: rgb(102, 102, 102);" data-z-index="4" class="highcharts-caption" text-anchor="start" x="10"></text><g aria-hidden="true" transform="translate(251,359)" data-z-index="7" class="highcharts-legend highcharts-no-tooltip"><rect height="26" width="147" y="0" x="0" ry="0" rx="0" class="highcharts-legend-box" fill="none"></rect><g data-z-index="1"><g><g transform="translate(8,3)" data-z-index="1" class="highcharts-legend-item highcharts-spline-series highcharts-color-undefined highcharts-series-0"><path stroke-width="2" stroke="#262424" class="highcharts-graph" d="M 0 11 L 16 11" fill="none"></path><path opacity="1" class="highcharts-point" d="M 8 15 A 4 4 0 1 1 8.003999999333336 14.999998000000167 Z" fill="#262424"></path><text style="color: rgb(51, 51, 51); cursor: pointer; font-size: 12px; font-weight: bold; fill: rgb(51, 51, 51);" y="15" data-z-index="2" text-anchor="start" x="21">Item 1</text></g><g transform="translate(83.78125,3)" data-z-index="1" class="highcharts-legend-item highcharts-spline-series highcharts-color-undefined highcharts-series-1"><path stroke-width="2" stroke="#282c22" class="highcharts-graph" d="M 0 11 L 16 11" fill="none"></path><path opacity="1" class="highcharts-point" d="M 8 7 L 12 11 L 8 15 L 4 11 Z" fill="#282c22"></path><text style="color: rgb(51, 51, 51); cursor: pointer; font-size: 12px; font-weight: bold; fill: rgb(51, 51, 51);" data-z-index="2" text-anchor="start" y="15" x="21">Item 2</text></g></g></g></g><g aria-hidden="true" data-z-index="7" class="highcharts-axis-labels highcharts-xaxis-labels"><text opacity="1" y="345" style="color: rgb(102, 102, 102); cursor: default; font-size: 11px; fill: rgb(102, 102, 102);" transform="translate(0,0)" text-anchor="middle" x="86.57142857143144">Button</text><text opacity="1" y="345" style="color: rgb(102, 102, 102); cursor: default; font-size: 11px; fill: rgb(102, 102, 102);" transform="translate(0,0)" text-anchor="middle" x="171.7142857142914">Accordion</text><text opacity="1" y="345" style="color: rgb(102, 102, 102); cursor: default; font-size: 11px; fill: rgb(102, 102, 102);" transform="translate(0,0)" text-anchor="middle" x="256.85714285714147">Alert</text><text opacity="1" y="345" style="color: rgb(102, 102, 102); cursor: default; font-size: 11px; fill: rgb(102, 102, 102);" transform="translate(0,0)" text-anchor="middle" x="342.0000000000014">Tooltip</text><text opacity="1" y="345" style="color: rgb(102, 102, 102); cursor: default; font-size: 11px; fill: rgb(102, 102, 102);" transform="translate(0,0)" text-anchor="middle" x="427.14285714286143">Form</text><text opacity="1" y="345" style="color: rgb(102, 102, 102); cursor: default; font-size: 11px; fill: rgb(102, 102, 102);" transform="translate(0,0)" text-anchor="middle" x="512.2857142857115">Dialog</text><text opacity="1" y="345" style="color: rgb(102, 102, 102); cursor: default; font-size: 11px; fill: rgb(102, 102, 102);" transform="translate(0,0)" text-anchor="middle" x="597.4285714285714">Carousal</text></g><g aria-hidden="true" data-z-index="7" class="highcharts-axis-labels highcharts-yaxis-labels"><text opacity="1" y="331" style="color: rgb(102, 102, 102); cursor: default; font-size: 11px; fill: rgb(102, 102, 102);" transform="translate(0,0)" text-anchor="end" x="29">0</text><text opacity="1" y="275" style="color: rgb(102, 102, 102); cursor: default; font-size: 11px; fill: rgb(102, 102, 102);" transform="translate(0,0)" text-anchor="end" x="29">20</text><text opacity="1" y="219" style="color: rgb(102, 102, 102); cursor: default; font-size: 11px; fill: rgb(102, 102, 102);" transform="translate(0,0)" text-anchor="end" x="29">40</text><text opacity="1" y="163" style="color: rgb(102, 102, 102); cursor: default; font-size: 11px; fill: rgb(102, 102, 102);" transform="translate(0,0)" text-anchor="end" x="29">60</text><text opacity="1" y="107" style="color: rgb(102, 102, 102); cursor: default; font-size: 11px; fill: rgb(102, 102, 102);" transform="translate(0,0)" text-anchor="end" x="29">80</text><text opacity="1" y="52" style="color: rgb(102, 102, 102); cursor: default; font-size: 11px; fill: rgb(102, 102, 102);" transform="translate(0,0)" text-anchor="end" x="29">100</text></g><text aria-hidden="false" aria-label="Chart credits: Highcharts.com" style="cursor: pointer; color: rgb(153, 153, 153); font-size: 9px; fill: rgb(153, 153, 153);" y="395" data-z-index="8" text-anchor="end" class="highcharts-credits" x="640">Highcharts.com</text></svg>