<?xml version="1.0" standalone="no"?>
<svg xmlns:xlink="http://www.w3.org/1999/xlink" id="wave" style="transform:rotate(0deg); transition: 0.3s" viewBox="0 0 1440 490" version="1.1" xmlns="http://www.w3.org/2000/svg"><defs><linearGradient id="sw-gradient-0" x1="0" x2="0" y1="1" y2="0"><stop stop-color="rgba(223.445, 218.134, 216.428, 1)" offset="0%"/><stop stop-color="rgba(45.856, 45.856, 45.856, 1)" offset="100%"/></linearGradient></defs><path style="transform:translate(0, 0px); opacity:1" fill="url(#sw-gradient-0)" d="M0,0L11.4,0C22.9,0,46,0,69,65.3C91.4,131,114,261,137,277.7C160,294,183,196,206,147C228.6,98,251,98,274,89.8C297.1,82,320,65,343,73.5C365.7,82,389,114,411,122.5C434.3,131,457,114,480,138.8C502.9,163,526,229,549,285.8C571.4,343,594,392,617,351.2C640,310,663,180,686,122.5C708.6,65,731,82,754,73.5C777.1,65,800,33,823,16.3C845.7,0,869,0,891,40.8C914.3,82,937,163,960,179.7C982.9,196,1006,147,1029,138.8C1051.4,131,1074,163,1097,196C1120,229,1143,261,1166,261.3C1188.6,261,1211,229,1234,212.3C1257.1,196,1280,196,1303,171.5C1325.7,147,1349,98,1371,114.3C1394.3,131,1417,212,1440,228.7C1462.9,245,1486,196,1509,179.7C1531.4,163,1554,180,1577,220.5C1600,261,1623,327,1634,359.3L1645.7,392L1645.7,490L1634.3,490C1622.9,490,1600,490,1577,490C1554.3,490,1531,490,1509,490C1485.7,490,1463,490,1440,490C1417.1,490,1394,490,1371,490C1348.6,490,1326,490,1303,490C1280,490,1257,490,1234,490C1211.4,490,1189,490,1166,490C1142.9,490,1120,490,1097,490C1074.3,490,1051,490,1029,490C1005.7,490,983,490,960,490C937.1,490,914,490,891,490C868.6,490,846,490,823,490C800,490,777,490,754,490C731.4,490,709,490,686,490C662.9,490,640,490,617,490C594.3,490,571,490,549,490C525.7,490,503,490,480,490C457.1,490,434,490,411,490C388.6,490,366,490,343,490C320,490,297,490,274,490C251.4,490,229,490,206,490C182.9,490,160,490,137,490C114.3,490,91,490,69,490C45.7,490,23,490,11,490L0,490Z"/></svg>